<?xml version="1.0" encoding="utf-8"?>
<!-- Generator: Adobe Illustrator 27.5.0, SVG Export Plug-In . SVG Version: 6.00 Build 0)  -->
<svg version="1.1" xmlns="http://www.w3.org/2000/svg" xmlns:xlink="http://www.w3.org/1999/xlink" x="0px" y="0px"
	 viewBox="0 0 500 500" style="enable-background:new 0 0 500 500;" xml:space="preserve">
<g id="Background_Complete">
	<g>
		<rect y="382.398" style="fill:#EBEBEB;" width="500" height="0.25"/>
		<rect x="52.459" y="391.922" style="fill:#EBEBEB;" width="16.061" height="0.25"/>
		<rect x="171.14" y="389.208" style="fill:#EBEBEB;" width="53.527" height="0.25"/>
		<rect x="69.521" y="401.208" style="fill:#EBEBEB;" width="36.254" height="0.25"/>
		<rect x="379.14" y="389.083" style="fill:#EBEBEB;" width="43.193" height="0.25"/>
		<rect x="431.237" y="389.083" style="fill:#EBEBEB;" width="6.333" height="0.25"/>
		<rect x="317" y="395.306" style="fill:#EBEBEB;" width="53.889" height="0.25"/>
		<path style="fill:#EBEBEB;" d="M237.014,337.8H43.915c-3.147,0-5.708-2.561-5.708-5.708V60.66c0-3.147,2.561-5.708,5.708-5.708
			h193.099c3.146,0,5.707,2.561,5.707,5.708v271.432C242.721,335.239,240.16,337.8,237.014,337.8z M43.915,55.203
			c-3.01,0-5.458,2.448-5.458,5.458v271.432c0,3.01,2.448,5.458,5.458,5.458h193.099c3.009,0,5.457-2.448,5.457-5.458V60.66
			c0-3.009-2.448-5.458-5.457-5.458H43.915z"/>
		<path style="fill:#EBEBEB;" d="M453.31,337.8H260.212c-3.147,0-5.707-2.561-5.707-5.708V60.66c0-3.147,2.561-5.708,5.707-5.708
			H453.31c3.148,0,5.708,2.561,5.708,5.708v271.432C459.019,335.239,456.458,337.8,453.31,337.8z M260.212,55.203
			c-3.009,0-5.457,2.448-5.457,5.458v271.432c0,3.01,2.448,5.458,5.457,5.458H453.31c3.01,0,5.458-2.448,5.458-5.458V60.66
			c0-3.009-2.448-5.458-5.458-5.458H260.212z"/>
	</g>
	<g>
		<g>
			<g>
				<rect x="389.71" y="298.806" style="fill:#F5F5F5;" width="6.641" height="83.593"/>
				<rect x="393.461" y="298.806" style="fill:#F0F0F0;" width="5.778" height="83.593"/>
				<rect x="234.833" y="298.806" style="fill:#F5F5F5;" width="6.641" height="83.593"/>
				<rect x="238.585" y="298.806" style="fill:#F0F0F0;" width="5.778" height="83.593"/>
				<rect x="414.877" y="298.806" style="fill:#F5F5F5;" width="6.641" height="83.593"/>
				<rect x="418.628" y="298.806" style="fill:#F0F0F0;" width="5.778" height="83.593"/>
				<rect x="260" y="298.806" style="fill:#F5F5F5;" width="6.641" height="83.593"/>
				
					<rect x="234.833" y="297.222" transform="matrix(-1 -1.224647e-16 1.224647e-16 -1 659.2393 597.6111)" style="fill:#F0F0F0;" width="189.573" height="3.167"/>
				
					<rect x="234.833" y="297.222" transform="matrix(-1 -1.224647e-16 1.224647e-16 -1 498.5849 597.6111)" style="fill:#E6E6E6;" width="28.918" height="3.167"/>
				<rect x="263.752" y="298.806" style="fill:#F0F0F0;" width="5.778" height="83.593"/>
			</g>
			<g>
				<rect x="311.71" y="236.343" style="fill:#EBEBEB;" width="17.934" height="60.879"/>
				<polygon style="fill:#E0E0E0;" points="378.259,297.222 318.739,297.222 309.751,225.968 369.271,225.968 				"/>
				<polygon style="fill:#F0F0F0;" points="381.759,297.222 320.279,297.222 311.29,225.968 372.77,225.968 				"/>
				<polygon style="fill:#FAFAFA;" points="347.268,297.222 335.339,297.222 338.699,225.968 350.627,225.968 				"/>
				<polygon style="fill:#FAFAFA;" points="360.942,297.222 349.198,297.222 352.558,225.968 364.301,225.968 				"/>
			</g>
		</g>
		<g>
			<rect x="276.322" y="72.513" style="fill:#E6E6E6;" width="154.633" height="120.986"/>
			<rect x="278.49" y="72.513" style="fill:#F0F0F0;" width="157.104" height="120.986"/>
			<rect x="276.322" y="193.499" style="fill:#E6E6E6;" width="154.633" height="4.049"/>
			<rect x="280.963" y="193.499" style="fill:#F0F0F0;" width="157.104" height="4.049"/>
			
				<rect x="303.044" y="60.948" transform="matrix(-1.836970e-16 1 -1 -1.836970e-16 490.0476 -224.0364)" style="fill:#FAFAFA;" width="107.996" height="144.114"/>
			<polygon style="fill:#FFFFFF;" points="363.852,187.004 374.253,79.007 392.248,79.007 381.847,187.004 			"/>
			<polygon style="fill:#FFFFFF;" points="318.432,187.004 328.833,79.007 346.828,79.007 336.427,187.004 			"/>
			<path style="fill:#F0F0F0;" d="M287.992,150.396c-0.275,0-0.497-0.223-0.497-0.497V83.233c0-0.274,0.222-0.497,0.497-0.497
				c0.275,0,0.497,0.222,0.497,0.497v66.666C288.489,150.173,288.267,150.396,287.992,150.396z"/>
			<polygon style="fill:#FFFFFF;" points="385.713,187.004 396.114,79.007 403.129,79.007 392.728,187.004 			"/>
			
				<rect x="374.689" y="132.593" transform="matrix(-1.836970e-16 1 -1 -1.836970e-16 561.6924 -295.6812)" style="fill:#E6E6E6;" width="107.996" height="0.825"/>
			<polygon style="opacity:0.5;fill:#E0E0E0;" points="437.13,90.783 282.497,90.783 281.9,81.532 436.532,81.532 			"/>
			<polygon style="opacity:0.5;fill:#E0E0E0;" points="437.13,105.991 282.497,105.991 281.9,96.74 436.532,96.74 			"/>
			<polygon style="opacity:0.5;fill:#E0E0E0;" points="437.13,121.199 282.497,121.199 281.9,111.947 436.532,111.947 			"/>
			<polygon style="opacity:0.5;fill:#E0E0E0;" points="437.13,136.406 282.497,136.406 281.9,127.155 436.532,127.155 			"/>
			<polygon style="opacity:0.5;fill:#E0E0E0;" points="437.13,151.614 282.497,151.614 281.9,142.363 436.532,142.363 			"/>
			<polygon style="opacity:0.5;fill:#E0E0E0;" points="437.13,166.821 282.497,166.821 281.9,157.57 436.532,157.57 			"/>
			<polygon style="opacity:0.5;fill:#E0E0E0;" points="437.13,98.387 282.497,98.387 281.9,89.136 436.532,89.136 			"/>
			<polygon style="opacity:0.5;fill:#E0E0E0;" points="437.13,113.595 282.497,113.595 281.9,104.343 436.532,104.343 			"/>
			<polygon style="opacity:0.5;fill:#E0E0E0;" points="437.13,128.802 282.497,128.802 281.9,119.551 436.532,119.551 			"/>
			<polygon style="opacity:0.5;fill:#E0E0E0;" points="437.13,144.01 282.497,144.01 281.9,134.759 436.532,134.759 			"/>
			<polygon style="opacity:0.5;fill:#E0E0E0;" points="437.13,159.217 282.497,159.217 281.9,149.966 436.532,149.966 			"/>
			<polygon style="opacity:0.5;fill:#E0E0E0;" points="437.13,174.425 282.497,174.425 281.9,165.174 436.532,165.174 			"/>
		</g>
		<g>
			<g>
				<g>
					<path style="fill:#F5F5F5;" d="M99.206,132.556h20.993c2.66,0,4.817-2.157,4.817-4.817v-8.069c0-2.66-2.157-4.817-4.817-4.817
						H99.206c-2.66,0-4.817,2.156-4.817,4.817v8.069C94.389,130.399,96.546,132.556,99.206,132.556z"/>
					<path style="fill:#F5F5F5;" d="M99.206,114.853h20.993c2.66,0,4.817-2.157,4.817-4.817v-8.069c0-2.66-2.157-4.817-4.817-4.817
						H99.206c-2.66,0-4.817,2.157-4.817,4.817v8.069C94.389,112.697,96.546,114.853,99.206,114.853z"/>
					<path style="fill:#E0E0E0;" d="M106.065,97.151h7.275c0.922,0,1.669-0.747,1.669-1.669v-2.796c0-0.922-0.747-1.669-1.669-1.669
						h-7.275c-0.922,0-1.669,0.747-1.669,1.669v2.796C104.396,96.403,105.143,97.151,106.065,97.151z"/>
					<path style="fill:#F5F5F5;" d="M99.206,150.258h20.993c2.66,0,4.817-2.157,4.817-4.817v-8.069c0-2.66-2.157-4.817-4.817-4.817
						H99.206c-2.66,0-4.817,2.157-4.817,4.817v8.069C94.389,148.102,96.546,150.258,99.206,150.258z"/>
				</g>
				<path style="fill:#F0F0F0;" d="M210.521,137.963c0,0-1.014,12.296-39.896,12.296s-39.896-12.296-39.896-12.296H210.521z"/>
			</g>
			<g>
				<g>
					<rect x="60.418" y="152.747" style="fill:#F0F0F0;" width="30.817" height="218.231"/>
					<rect x="66.335" y="370.978" style="fill:#F0F0F0;" width="151.975" height="11.421"/>
					
						<rect x="91.234" y="152.747" transform="matrix(-1 -1.224647e-16 1.224647e-16 -1 315.4615 523.7244)" style="fill:#F5F5F5;" width="132.993" height="218.231"/>
					
						<rect x="103.35" y="230.295" transform="matrix(-1 -1.224647e-16 1.224647e-16 -1 315.4615 512.0897)" style="fill:#F0F0F0;" width="108.761" height="51.499"/>
					
						<rect x="103.35" y="293.282" transform="matrix(-1 -1.224647e-16 1.224647e-16 -1 315.4615 638.064)" style="fill:#F0F0F0;" width="108.761" height="51.499"/>
					
						<rect x="103.35" y="355.505" transform="matrix(-1 -1.224647e-16 1.224647e-16 -1 315.4615 718.8605)" style="fill:#F0F0F0;" width="108.761" height="7.85"/>
					<path style="fill:#F5F5F5;" d="M185.374,234.373h-55.287c-2.375,0-4.319-1.944-4.319-4.319l0,0
						c0-2.375,1.943-4.319,4.319-4.319h55.287c2.375,0,4.319,1.943,4.319,4.319l0,0C189.693,232.43,187.75,234.373,185.374,234.373z
						"/>
					
						<rect x="103.35" y="167.308" transform="matrix(-1 -1.224647e-16 1.224647e-16 -1 315.4615 386.1155)" style="fill:#F0F0F0;" width="108.761" height="51.499"/>
					<path style="fill:#F5F5F5;" d="M185.374,171.386h-55.287c-2.375,0-4.319-1.943-4.319-4.319l0,0
						c0-2.375,1.943-4.319,4.319-4.319h55.287c2.375,0,4.319,1.943,4.319,4.319l0,0C189.693,169.443,187.75,171.386,185.374,171.386
						z"/>
					<path style="fill:#F5F5F5;" d="M185.374,297.36h-55.287c-2.375,0-4.319-1.944-4.319-4.319l0,0c0-2.375,1.943-4.319,4.319-4.319
						h55.287c2.375,0,4.319,1.944,4.319,4.319l0,0C189.693,295.417,187.75,297.36,185.374,297.36z"/>
				</g>
				<rect x="91.234" y="150.259" style="fill:#F0F0F0;" width="137.099" height="2.488"/>
				
					<rect x="56.111" y="150.259" transform="matrix(-1 -1.224647e-16 1.224647e-16 -1 147.3455 303.0057)" style="fill:#E6E6E6;" width="35.123" height="2.488"/>
			</g>
		</g>
	</g>
</g>
<g id="Background_Simple" style="display:none;">
	<g style="display:inline;">
		<path style="fill:#407BFF;" d="M175.994,149.232c-121.854,8.497-119.98,94.859-47.65,159.344
			c67.201,34.586,158.279,40.322,217.969,2.719c36.319-23.632,38.132-68.634,49.016-108.793
			c19.66-111.11-79.357-126.076-125.288-98.9C224.111,130.778,221.898,148.064,175.994,149.232z"/>
		<path style="opacity:0.9;fill:#FFFFFF;" d="M175.994,149.232c-121.854,8.497-119.98,94.859-47.65,159.344
			c67.201,34.586,158.279,40.322,217.969,2.719c36.319-23.632,38.132-68.634,49.016-108.793
			c19.66-111.11-79.357-126.076-125.288-98.9C224.111,130.778,221.898,148.064,175.994,149.232z"/>
	</g>
</g>
<g id="Shadow_1_">
	<ellipse id="_x3C_Path_x3E__123_" style="fill:#F5F5F5;" cx="250" cy="416.238" rx="193.889" ry="11.323"/>
</g>
<g id="Table">
	<g>
		<g>
			<polygon style="fill:#407BFF;" points="442.057,317.111 57.943,317.111 50.857,310.406 449.143,310.406 			"/>
			<polygon style="opacity:0.5;fill:#FFFFFF;" points="442.057,317.111 57.943,317.111 50.857,310.406 449.143,310.406 			"/>
		</g>
		<g>
			<polygon style="fill:#407BFF;" points="409.122,320.722 90.878,320.722 85.006,317.111 414.994,317.111 			"/>
			<polygon style="opacity:0.5;" points="409.122,320.722 90.878,320.722 85.006,317.111 414.994,317.111 			"/>
		</g>
		<g>
			<polygon style="fill:#407BFF;" points="88.358,416.238 83.791,416.238 97.964,320.722 108.151,320.722 			"/>
			<polygon style="opacity:0.5;" points="88.358,416.238 83.791,416.238 97.964,320.722 108.151,320.722 			"/>
		</g>
		<g>
			<polygon style="fill:#407BFF;" points="113.104,416.238 108.537,416.238 122.71,320.722 132.897,320.722 			"/>
			<polygon style="opacity:0.5;" points="113.104,416.238 108.537,416.238 122.71,320.722 132.897,320.722 			"/>
		</g>
		<g>
			<polygon style="fill:#407BFF;" points="411.642,416.238 416.209,416.238 402.036,320.722 391.849,320.722 			"/>
			<polygon style="opacity:0.5;" points="411.642,416.238 416.209,416.238 402.036,320.722 391.849,320.722 			"/>
		</g>
		<g>
			<polygon style="fill:#407BFF;" points="386.896,416.238 391.463,416.238 377.29,320.722 367.103,320.722 			"/>
			<polygon style="opacity:0.5;" points="386.896,416.238 391.463,416.238 377.29,320.722 367.103,320.722 			"/>
		</g>
	</g>
</g>
<g id="Gear">
	<g>
		<path style="fill:#407BFF;" d="M224.281,95.144l12.913,0.862c1.02,0.068,1.919,0.694,2.338,1.626l1.359,3.029
			c0.292,0.65,0.83,1.149,1.489,1.42c1.63,0.67,3.2,1.448,4.703,2.327c0.615,0.36,1.337,0.484,2.032,0.321l3.232-0.757
			c0.995-0.233,2.038,0.102,2.711,0.871l8.521,9.74c0.673,0.77,0.867,1.848,0.503,2.803l-1.18,3.102
			c-0.254,0.666-0.227,1.399,0.048,2.057c0.671,1.606,1.234,3.267,1.681,4.971c0.181,0.689,0.604,1.289,1.209,1.664l2.82,1.749
			c0.869,0.539,1.369,1.513,1.301,2.533l-0.862,12.913c-0.068,1.02-0.694,1.919-1.626,2.338l-3.028,1.359
			c-0.65,0.292-1.149,0.83-1.42,1.488c-0.67,1.63-1.448,3.2-2.327,4.703c-0.36,0.615-0.484,1.338-0.321,2.032l0.758,3.233
			c0.233,0.995-0.102,2.038-0.871,2.711l-9.741,8.521c-0.769,0.673-1.848,0.867-2.803,0.503l-3.104-1.181
			c-0.666-0.254-1.398-0.227-2.056,0.048c-1.605,0.671-3.265,1.233-4.968,1.68c-0.689,0.181-1.288,0.604-1.664,1.209l-1.751,2.823
			c-0.539,0.869-1.513,1.369-2.533,1.301l-12.913-0.862c-1.02-0.068-1.919-0.694-2.338-1.626l-1.36-3.03
			c-0.292-0.65-0.83-1.149-1.488-1.42c-1.629-0.669-3.199-1.447-4.701-2.326c-0.615-0.36-1.337-0.484-2.031-0.321l-3.233,0.758
			c-0.995,0.233-2.038-0.102-2.711-0.871l-8.521-9.741c-0.673-0.769-0.867-1.848-0.503-2.803l1.179-3.099
			c0.254-0.667,0.227-1.399-0.048-2.057c-0.672-1.608-1.236-3.27-1.683-4.976c-0.181-0.689-0.604-1.288-1.209-1.664l-2.818-1.748
			c-0.869-0.539-1.369-1.513-1.301-2.533l0.862-12.913c0.068-1.02,0.694-1.919,1.626-2.338l3.025-1.357
			c0.65-0.292,1.149-0.83,1.42-1.489c0.67-1.632,1.45-3.204,2.33-4.708c0.36-0.616,0.484-1.338,0.321-2.032l-0.757-3.228
			c-0.233-0.995,0.102-2.038,0.871-2.711l9.741-8.521c0.77-0.673,1.848-0.867,2.803-0.503l3.103,1.18
			c0.666,0.253,1.398,0.227,2.056-0.048c1.606-0.671,3.266-1.234,4.971-1.681c0.689-0.181,1.289-0.604,1.664-1.209l1.75-2.821
			C222.286,95.577,223.261,95.076,224.281,95.144z M203.531,135.512c-0.901,13.489,9.297,25.162,22.801,26.064
			c13.489,0.901,25.163-9.312,26.064-22.801c0.901-13.489-9.312-25.163-22.801-26.064
			C216.09,111.81,204.431,122.024,203.531,135.512z"/>
		<g>
			<path style="fill:#407BFF;" d="M275.447,149.723l4.437-1.5c0.475-0.161,1-0.046,1.365,0.298l0.736,0.694
				c0.251,0.237,0.585,0.36,0.93,0.362c0.611,0.003,1.219,0.044,1.818,0.122c0.343,0.044,0.689-0.033,0.97-0.235l0.822-0.59
				c0.407-0.292,0.943-0.336,1.392-0.114l4.198,2.077c0.449,0.222,0.74,0.675,0.754,1.176l0.03,1.011
				c0.01,0.346,0.158,0.668,0.402,0.913c0.426,0.43,0.827,0.887,1.2,1.372c0.211,0.274,0.511,0.464,0.852,0.52l0.998,0.164
				c0.495,0.081,0.905,0.429,1.065,0.904l1.5,4.437c0.161,0.475,0.046,1-0.298,1.365l-0.694,0.736
				c-0.237,0.251-0.36,0.585-0.362,0.93c-0.003,0.612-0.044,1.219-0.122,1.819c-0.045,0.343,0.033,0.689,0.235,0.97l0.59,0.822
				c0.293,0.407,0.337,0.943,0.114,1.392l-2.077,4.198c-0.222,0.449-0.675,0.74-1.176,0.754l-1.012,0.029
				c-0.346,0.01-0.668,0.158-0.913,0.402c-0.429,0.426-0.887,0.826-1.371,1.199c-0.274,0.211-0.464,0.511-0.52,0.852l-0.164,0.999
				c-0.081,0.495-0.429,0.905-0.904,1.065l-4.437,1.5c-0.475,0.161-1,0.046-1.365-0.298l-0.736-0.695
				c-0.251-0.237-0.585-0.36-0.93-0.362c-0.611-0.003-1.218-0.044-1.818-0.121c-0.343-0.045-0.689,0.033-0.969,0.235l-0.822,0.59
				c-0.407,0.293-0.943,0.336-1.392,0.114l-4.198-2.076c-0.449-0.222-0.74-0.675-0.754-1.176l-0.029-1.01
				c-0.01-0.346-0.158-0.668-0.402-0.913c-0.426-0.43-0.828-0.888-1.202-1.373c-0.211-0.274-0.511-0.464-0.852-0.52l-0.997-0.163
				c-0.495-0.081-0.905-0.429-1.065-0.904l-1.5-4.437c-0.161-0.475-0.046-1,0.298-1.365l0.693-0.734
				c0.237-0.251,0.36-0.585,0.362-0.93c0.003-0.612,0.044-1.22,0.122-1.821c0.045-0.343-0.033-0.689-0.235-0.97l-0.589-0.82
				c-0.293-0.407-0.337-0.943-0.114-1.392l2.077-4.198c0.222-0.449,0.675-0.74,1.176-0.754l1.011-0.029
				c0.346-0.01,0.668-0.158,0.913-0.402c0.43-0.426,0.887-0.827,1.372-1.2c0.274-0.211,0.464-0.511,0.52-0.852l0.164-0.998
				C274.624,150.294,274.972,149.884,275.447,149.723z M278.098,165.898c0.886,2.621,3.728,4.029,6.352,3.142
				c2.621-0.886,4.028-3.731,3.142-6.352c-0.886-2.621-3.731-4.028-6.352-3.142C278.616,160.433,277.212,163.277,278.098,165.898z"
				/>
			<path style="opacity:0.5;fill:#FFFFFF;" d="M275.447,149.723l4.437-1.5c0.475-0.161,1-0.046,1.365,0.298l0.736,0.694
				c0.251,0.237,0.585,0.36,0.93,0.362c0.611,0.003,1.219,0.044,1.818,0.122c0.343,0.044,0.689-0.033,0.97-0.235l0.822-0.59
				c0.407-0.292,0.943-0.336,1.392-0.114l4.198,2.077c0.449,0.222,0.74,0.675,0.754,1.176l0.03,1.011
				c0.01,0.346,0.158,0.668,0.402,0.913c0.426,0.43,0.827,0.887,1.2,1.372c0.211,0.274,0.511,0.464,0.852,0.52l0.998,0.164
				c0.495,0.081,0.905,0.429,1.065,0.904l1.5,4.437c0.161,0.475,0.046,1-0.298,1.365l-0.694,0.736
				c-0.237,0.251-0.36,0.585-0.362,0.93c-0.003,0.612-0.044,1.219-0.122,1.819c-0.045,0.343,0.033,0.689,0.235,0.97l0.59,0.822
				c0.293,0.407,0.337,0.943,0.114,1.392l-2.077,4.198c-0.222,0.449-0.675,0.74-1.176,0.754l-1.012,0.029
				c-0.346,0.01-0.668,0.158-0.913,0.402c-0.429,0.426-0.887,0.826-1.371,1.199c-0.274,0.211-0.464,0.511-0.52,0.852l-0.164,0.999
				c-0.081,0.495-0.429,0.905-0.904,1.065l-4.437,1.5c-0.475,0.161-1,0.046-1.365-0.298l-0.736-0.695
				c-0.251-0.237-0.585-0.36-0.93-0.362c-0.611-0.003-1.218-0.044-1.818-0.121c-0.343-0.045-0.689,0.033-0.969,0.235l-0.822,0.59
				c-0.407,0.293-0.943,0.336-1.392,0.114l-4.198-2.076c-0.449-0.222-0.74-0.675-0.754-1.176l-0.029-1.01
				c-0.01-0.346-0.158-0.668-0.402-0.913c-0.426-0.43-0.828-0.888-1.202-1.373c-0.211-0.274-0.511-0.464-0.852-0.52l-0.997-0.163
				c-0.495-0.081-0.905-0.429-1.065-0.904l-1.5-4.437c-0.161-0.475-0.046-1,0.298-1.365l0.693-0.734
				c0.237-0.251,0.36-0.585,0.362-0.93c0.003-0.612,0.044-1.22,0.122-1.821c0.045-0.343-0.033-0.689-0.235-0.97l-0.589-0.82
				c-0.293-0.407-0.337-0.943-0.114-1.392l2.077-4.198c0.222-0.449,0.675-0.74,1.176-0.754l1.011-0.029
				c0.346-0.01,0.668-0.158,0.913-0.402c0.43-0.426,0.887-0.827,1.372-1.2c0.274-0.211,0.464-0.511,0.52-0.852l0.164-0.998
				C274.624,150.294,274.972,149.884,275.447,149.723z M278.098,165.898c0.886,2.621,3.728,4.029,6.352,3.142
				c2.621-0.886,4.028-3.731,3.142-6.352c-0.886-2.621-3.731-4.028-6.352-3.142C278.616,160.433,277.212,163.277,278.098,165.898z"
				/>
		</g>
		<path style="fill:#407BFF;" d="M249.9,197.738l5.502-9.529c0.903-1.563-0.226-3.518-2.031-3.518h-11.003
			c-1.805,0-2.934,1.954-2.031,3.518l5.502,9.529C246.741,199.301,248.997,199.301,249.9,197.738z"/>
	</g>
</g>
<g id="Character_1">
	<g>
		<g>
			<g>
				<g>
					<path style="fill:#407BFF;" d="M69.693,306.423h134.803c1.962,0,3.514-1.605,3.45-3.568l-3.19-96.374
						c-0.065-1.962-1.723-3.568-3.686-3.568H66.267c-1.962,0-3.514,1.605-3.449,3.568l3.19,96.374
						C66.072,304.818,67.731,306.423,69.693,306.423z"/>
				</g>
				<g>
					<g>
						<path style="fill:#407BFF;" d="M70.794,306.423h134.803c1.962,0,3.514-1.605,3.449-3.568l-3.19-96.374
							c-0.065-1.962-1.723-3.568-3.686-3.568H67.368c-1.962,0-3.514,1.605-3.449,3.568l3.19,96.374
							C67.173,304.818,68.832,306.423,70.794,306.423z"/>
					</g>
					<g style="opacity:0.6;">
						<path style="fill:#263238;" d="M70.794,306.423h134.803c1.962,0,3.514-1.605,3.449-3.568l-3.19-96.374
							c-0.065-1.962-1.723-3.568-3.686-3.568H67.368c-1.962,0-3.514,1.605-3.449,3.568l3.19,96.374
							C67.173,304.818,68.832,306.423,70.794,306.423z"/>
					</g>
				</g>
				<g>
					<g>
						<path style="fill:#407BFF;" d="M72.53,306.248h162.806c1.696,0,3.168,0.987,3.847,2.404c0.39,0.815-0.207,1.754-1.126,1.754
							H69.809c-0.919,0-1.516-0.939-1.126-1.754C69.362,307.235,70.834,306.248,72.53,306.248z"/>
					</g>
					<path style="opacity:0.6;fill:#263238;" d="M235.336,306.248H105.418c-1.696,0-3.168,0.987-3.847,2.404
						c-0.39,0.815,0.207,1.754,1.126,1.754h135.359c0.919,0,1.516-0.939,1.126-1.754
						C238.504,307.235,237.032,306.248,235.336,306.248z"/>
					<path style="opacity:0.3;fill:#FFFFFF;" d="M157.677,308.892h33.8c0.833,0,1.514,0.682,1.514,1.514h-36.827
						C156.163,309.574,156.844,308.892,157.677,308.892z"/>
				</g>
				<path style="opacity:0.9;fill:#FFFFFF;" d="M205.825,299.371l-2.959-89.404c-0.025-0.764-0.671-1.389-1.435-1.389H68.482
					c-0.764,0-1.369,0.625-1.343,1.389l2.959,89.404c0.025,0.764,0.671,1.389,1.435,1.389h132.948
					C205.246,300.76,205.85,300.135,205.825,299.371z"/>
				<polygon style="fill:#FFFFFF;" points="96.261,300.764 77.927,300.764 99.055,208.578 117.389,208.578 				"/>
				<polygon style="fill:#FFFFFF;" points="107.938,300.764 101.342,300.764 122.47,208.578 129.066,208.578 				"/>
				<polygon style="fill:#FFFFFF;" points="175.365,300.764 168.769,300.764 189.896,208.578 196.493,208.578 				"/>
				<path style="opacity:0.4;fill:#FFFFFF;" d="M133.822,205.902c0.019,0.577,0.503,1.046,1.08,1.046
					c0.577,0,1.03-0.468,1.011-1.046c-0.019-0.577-0.503-1.046-1.08-1.046C134.256,204.856,133.803,205.324,133.822,205.902z"/>
			</g>
		</g>
		<g>
			<path style="fill:#FFC3BD;" d="M176.738,196.058c1.777,2.841,3.683,5.856,5.59,8.749c1.935,2.902,3.877,5.798,5.872,8.64
				c3.984,5.68,8.133,11.227,12.566,16.229c2.229,2.46,4.517,4.835,6.851,6.729l0.862,0.688c0.195,0.139,0.343,0.293,0.594,0.444
				c0.431,0.311,1.02,0.615,1.608,0.935c1.226,0.619,2.67,1.171,4.179,1.659c1.508,0.514,3.098,0.964,4.724,1.367
				c1.624,0.425,3.286,0.801,4.968,1.152c3.347,0.714,6.846,1.362,10.216,1.942l-0.004,7.017c-1.922,0.282-3.726,0.417-5.596,0.552
				c-1.858,0.142-3.718,0.176-5.594,0.19c-3.753-0.015-7.536-0.248-11.462-0.909c-1.962-0.359-3.957-0.814-6.05-1.526
				c-1.057-0.376-2.113-0.784-3.226-1.376c-0.543-0.261-1.124-0.629-1.683-0.968l-1.295-0.903c-3.363-2.431-6.216-5.064-8.895-7.794
				c-5.32-5.46-9.947-11.24-14.294-17.173c-2.172-2.967-4.258-5.979-6.262-9.042c-2.018-3.082-3.956-6.095-5.858-9.383
				L176.738,196.058z"/>
			<path style="fill:#407BFF;" d="M159.915,197.981c-0.982,8.783,19.923,29.762,19.923,29.762l14.148-11.803
				c0,0-6.681-11.465-13.741-20.214C172.204,185.762,161.024,188.066,159.915,197.981z"/>
			<path style="opacity:0.3;" d="M171.348,204.231c-5.59-5.959-8.26-7.549-11.474-5.165c0.429,9.276,19.961,28.677,19.961,28.677
				C181.155,217.785,176.079,211.39,171.348,204.231z"/>
			<g>
				<polygon style="fill:#407BFF;" points="192.849,211.888 194.338,216.212 178.499,229.211 175.367,225.956 				"/>
				<polygon style="opacity:0.3;fill:#263238;" points="192.849,211.888 194.338,216.212 178.499,229.211 175.367,225.956 				"/>
			</g>
			<path style="fill:#FFC3BD;" d="M234.048,244.446l10.987,1.89l-6.049,9.611c-1.434,0.235-7.18-2.879-9.714-6.735L234.048,244.446z
				"/>
			<polygon style="fill:#FFC3BD;" points="251.803,252.864 247.412,257.844 238.986,255.947 245.035,246.336 			"/>
			<path style="fill:#407BFF;" d="M171.301,189.592c0,0,12.009,28.222,3.355,80.78c-15.062,0-42.659,0-49.988,0
				c-0.611-7.673,2.912-45.106-5.743-81.262c0,0,8.509-1.719,16.66-2.113c6.377-0.308,15.617-0.512,21.249,0.001
				C164.262,187.674,171.301,189.592,171.301,189.592z"/>
			<path style="opacity:0.3;" d="M130.094,198.037c1.039,5.95-0.344,20.187-5.44,36.638c-0.457-12.661-1.728-27.341-4.909-41.968
				l-0.002-0.071C123.024,192.3,129.104,192.459,130.094,198.037z"/>
			<path style="fill:#FFC3BD;" d="M136.861,163.07c1.578,6.837,3.35,19.365-1.275,23.927c0,0,1.996,5.664,14.7,5.664
				c13.97,0,6.549-5.663,6.549-5.663c-7.687-1.821-7.687-7.477-6.543-12.79L136.861,163.07z"/>
			<path style="fill:#FFFFFF;" d="M151.154,193.187l2.981,3.177c0.181,0.193,0.225,0.476,0.111,0.714l-1.495,3.135
				c-0.102,0.213-0.312,0.353-0.547,0.364l-2.271,0.11c-0.221,0.011-0.431-0.093-0.557-0.274l-2.093-3.011
				c-0.165-0.238-0.15-0.557,0.036-0.779l2.878-3.411C150.444,192.919,150.891,192.907,151.154,193.187z"/>
			<path style="fill:#263238;" d="M150.661,192.662c-2.302,3.37-2.431,7.698-2.431,7.698s-16.227-5.547-15.493-13.674
				c0,0,2.734-1.325,4.152-2.402C136.89,184.284,137.424,189.406,150.661,192.662z"/>
			<path style="fill:#263238;" d="M150.661,192.662c2.302,3.37,3.066,7.21,3.066,7.21s7.525-5.151,5.386-13.186
				c0,0-2.411-0.511-4.426-0.949C154.687,185.737,155.622,190.923,150.661,192.662z"/>
			<path style="fill:#FFFFFF;" d="M152.5,200.243c1.021,3.319,8.539,27.937,8.729,33.83c0.002,0.052-0.003,0.096-0.014,0.147
				c-0.693,3.173-3.835,8.73-5.118,10.913c-0.223,0.38-0.782,0.342-0.949-0.066c-0.88-2.145-3.01-7.293-4.4-10.304
				c-0.028-0.06-0.042-0.119-0.046-0.185c-0.666-10.75-0.84-27.463-1.173-34.151c-0.015-0.305,0.227-0.554,0.533-0.554h1.93
				C152.226,199.872,152.431,200.019,152.5,200.243z"/>
			<path style="opacity:0.2;" d="M142.337,167.615l7.949,6.587c-0.275,1.257-0.479,2.532-0.524,3.772
				c-2.927-0.421-7.039-3.618-7.454-6.668C142.101,169.785,142.114,168.323,142.337,167.615z"/>
			<path style="fill:#263238;" d="M156.437,142.738c1.892,1.412,5.119,7.377,0.987,8.931
				C153.291,153.223,151.811,139.284,156.437,142.738z"/>
			<path style="fill:#FFC3BD;" d="M134.396,154.874c1.896,9.105,2.542,14.514,7.873,18.709c8.019,6.309,18.769,0.862,19.636-8.53
				c0.781-8.454-2.451-21.924-11.989-24.582C140.52,137.852,132.5,145.768,134.396,154.874z"/>
			<path style="fill:#263238;" d="M135.586,161.735l3.828-2.555l0.243-2.216c0.353-3.22-0.247-6.472-1.725-9.354l0,0
				c0,0,18.565,0.694,20.873-5.119c2.308-5.814-4.247-10.177-4.247-10.177s-6.571,3.762-11.012,4.071
				c-4.441,0.308-18.01-5.243-18.01,6.229C119.553,144.465,119.742,154.333,135.586,161.735"/>
			<path style="fill:#263238;" d="M126.229,143.064c0,0-2.458-1.958-0.625-7.917C123.354,136.273,122.271,142.356,126.229,143.064z"
				/>
			<path style="fill:#FFC3BD;" d="M131.707,165.436c1.611,1.964,3.962,3.037,6.021,3.255c3.097,0.327,4.032-2.534,2.657-5.159
				c-1.237-2.363-4.339-5.38-7.2-4.489C130.367,159.919,129.865,163.19,131.707,165.436z"/>
			<path style="fill:#263238;" d="M178.879,300.764h-31.945c-2.874-17.347-5.181-30.395-5.181-30.395h32.903
				C174.656,270.369,176.509,283.203,178.879,300.764z"/>
			<path style="fill:#263238;" d="M125.881,300.764c-0.719-17.347-1.261-30.395-1.261-30.395h32.26c0,0,0.164,13.212,0.227,30.395
				H125.881z"/>
			<path style="fill:#263238;" d="M148.727,155.902c0.108,0.746,0.593,1.308,1.083,1.254c0.49-0.054,0.799-0.703,0.691-1.449
				c-0.108-0.746-0.593-1.308-1.083-1.254C148.928,154.506,148.619,155.155,148.727,155.902z"/>
			<path style="fill:#263238;" d="M157.197,154.97c0.108,0.746,0.593,1.308,1.083,1.254c0.49-0.054,0.799-0.703,0.691-1.449
				c-0.108-0.746-0.593-1.308-1.083-1.254C157.397,153.575,157.088,154.224,157.197,154.97z"/>
			<path style="fill:#ED847E;" d="M154.558,155.638c0,0,2.329,4.119,4.506,5.991c-1.147,1.378-3.482,1.063-3.482,1.063
				L154.558,155.638z"/>
			<path style="fill:#263238;" d="M152.137,164.999c0.478,0.051,0.996,0.055,1.554-0.006c0.122-0.013,0.209-0.123,0.196-0.244
				c-0.013-0.121-0.12-0.208-0.244-0.196c-3.291,0.362-5.163-1.761-5.182-1.783c-0.079-0.093-0.219-0.103-0.312-0.023
				c-0.093,0.08-0.103,0.219-0.023,0.312C148.193,163.139,149.594,164.729,152.137,164.999z"/>
			<path style="fill:#263238;" d="M145.669,153.463c0.17,0.018,0.342-0.064,0.432-0.222c0.943-1.664,2.53-1.761,2.597-1.764
				c0.243-0.012,0.432-0.218,0.421-0.462c-0.011-0.244-0.215-0.437-0.458-0.423c-0.087,0.003-2.138,0.108-3.331,2.212
				c-0.12,0.213-0.046,0.483,0.167,0.603C145.552,153.439,145.611,153.457,145.669,153.463z"/>
			<path style="fill:#263238;" d="M160.373,151.666c0.1,0.011,0.203-0.012,0.293-0.072c0.203-0.136,0.258-0.411,0.122-0.614
				c-1.376-2.057-3.42-2.112-3.505-2.111c-0.245-0.004-0.446,0.191-0.449,0.436c-0.004,0.244,0.195,0.45,0.434,0.45
				c0.081,0.001,1.681,0.067,2.784,1.718C160.128,151.586,160.247,151.653,160.373,151.666z"/>
			<path style="fill:#FFC3BD;" d="M128.465,203.161l-2.216,3.825c-0.75,1.311-1.482,2.639-2.193,3.975
				c-1.433,2.668-2.821,5.356-4.14,8.059c-1.292,2.709-2.534,5.434-3.642,8.166c-0.539,1.366-1.071,2.74-1.536,4.107l-0.705,2.05
				l-0.597,2.042l-0.15,0.511l-0.075,0.255c-0.025,0.087-0.011,0.034-0.022,0.057c-0.026,0.012-0.045,0.112-0.072,0.227
				c-0.041,0.259-0.04,0.682,0.004,1.172c0.081,0.993,0.352,2.233,0.74,3.504c0.795,2.554,1.909,5.302,3.195,7.995
				c2.528,5.426,5.614,10.906,8.641,16.254l-5.529,4.321c-2.364-2.367-4.475-4.782-6.56-7.325c-2.071-2.536-4.031-5.179-5.895-7.964
				c-1.818-2.817-3.597-5.723-5.035-9.095c-0.721-1.691-1.385-3.49-1.841-5.617c-0.219-1.069-0.375-2.229-0.383-3.552
				c0.008-0.676,0.038-1.368,0.16-2.133l0.088-0.526l0.064-0.321l0.129-0.643c0.623-3.473,1.59-6.739,2.638-9.968
				c1.051-3.219,2.297-6.319,3.611-9.377c1.327-3.047,2.775-6.02,4.321-8.936c0.779-1.455,1.578-2.897,2.403-4.331
				c0.826-1.46,1.652-2.806,2.64-4.331L128.465,203.161z"/>
			<path style="fill:#407BFF;" d="M118.926,189.11c-8.798,1.286-17.862,31.926-17.862,31.926l18.935,10.49
				c0,0,7.674-14.573,11.332-25.395C135.164,194.793,128.362,187.731,118.926,189.11z"/>
			<g>
				<polygon style="fill:#407BFF;" points="101.451,216.721 100.649,221.224 120.108,231.925 122.699,228.224 				"/>
				<polygon style="opacity:0.3;fill:#263238;" points="101.451,216.721 100.649,221.224 120.108,231.925 122.699,228.224 				"/>
			</g>
			<path style="fill:#FFC3BD;" d="M123.198,263.289l9.306-1.621l-4.776,10.77c0,0-8.494-0.049-8.104-4.427L123.198,263.289z"/>
			<polygon style="fill:#FFC3BD;" points="139.446,267.081 135.075,275.783 127.728,272.438 132.504,261.668 			"/>
		</g>
	</g>
</g>
<g id="Character_2">
	<g>
		<g>
			<g>
				<g>
					<path style="fill:#407BFF;" d="M430.307,306.423H295.504c-1.962,0-3.514-1.605-3.449-3.568l3.19-96.374
						c0.065-1.962,1.724-3.568,3.686-3.568h134.803c1.962,0,3.514,1.605,3.449,3.568l-3.19,96.374
						C433.928,304.818,432.269,306.423,430.307,306.423z"/>
					<path style="opacity:0.6;fill:#263238;" d="M430.307,306.423H295.504c-1.962,0-3.514-1.605-3.449-3.568l3.19-96.374
						c0.065-1.962,1.724-3.568,3.686-3.568h134.803c1.962,0,3.514,1.605,3.449,3.568l-3.19,96.374
						C433.928,304.818,432.269,306.423,430.307,306.423z"/>
				</g>
				<g>
					<path style="fill:#407BFF;" d="M429.206,306.423H294.404c-1.962,0-3.514-1.605-3.449-3.568l3.19-96.374
						c0.065-1.962,1.723-3.568,3.686-3.568h134.803c1.962,0,3.514,1.605,3.449,3.568l-3.19,96.374
						C432.827,304.818,431.168,306.423,429.206,306.423z"/>
				</g>
				<g>
					<g>
						<path style="fill:#407BFF;" d="M427.47,306.248H264.664c-1.696,0-3.168,0.987-3.847,2.404
							c-0.39,0.815,0.207,1.754,1.126,1.754h168.248c0.919,0,1.516-0.939,1.126-1.754
							C430.638,307.235,429.166,306.248,427.47,306.248z"/>
					</g>
					<path style="opacity:0.6;fill:#263238;" d="M427.47,306.248h-24.952c-1.696,0-3.168,0.987-3.847,2.404
						c-0.39,0.815,0.207,1.754,1.126,1.754h30.394c0.919,0,1.516-0.939,1.126-1.754C430.638,307.235,429.166,306.248,427.47,306.248
						z"/>
					<path style="opacity:0.2;" d="M342.323,308.892h-33.8c-0.833,0-1.514,0.682-1.514,1.514h36.827
						C343.837,309.574,343.155,308.892,342.323,308.892z"/>
				</g>
				<path style="opacity:0.9;fill:#FFFFFF;" d="M294.175,299.371l2.959-89.404c0.025-0.764,0.671-1.389,1.435-1.389h132.948
					c0.764,0,1.369,0.625,1.343,1.389l-2.959,89.404c-0.025,0.764-0.671,1.389-1.435,1.389H295.518
					C294.754,300.76,294.15,300.135,294.175,299.371z"/>
				<polygon style="fill:#FFFFFF;" points="388.724,300.764 370.39,300.764 391.518,208.578 409.852,208.578 				"/>
				<polygon style="fill:#FFFFFF;" points="309.126,300.764 302.53,300.764 323.658,208.578 330.254,208.578 				"/>
				<polygon style="fill:#FFFFFF;" points="403.751,300.764 397.155,300.764 418.282,208.578 424.879,208.578 				"/>
				<path style="opacity:0.4;" d="M366.178,205.902c-0.019,0.577-0.503,1.046-1.08,1.046c-0.578,0-1.03-0.468-1.011-1.046
					c0.019-0.577,0.503-1.046,1.08-1.046C365.744,204.856,366.197,205.324,366.178,205.902z"/>
			</g>
		</g>
		<g>
			<path style="fill:#B55B52;" d="M356.463,163.07c-1.577,6.837-3.35,19.365,1.276,23.927c0,0-1.996,5.664-14.7,5.664
				c-13.97,0-6.549-5.663-6.549-5.663c7.688-1.821,7.687-7.477,6.543-12.79L356.463,163.07z"/>
			<path style="fill:#B65B52;" d="M376.814,195.56c0.988,1.525,1.815,2.871,2.641,4.331c0.826,1.435,1.624,2.876,2.403,4.331
				c1.546,2.916,2.994,5.889,4.321,8.936c1.314,3.058,2.559,6.158,3.611,9.377c1.048,3.229,2.015,6.495,2.638,9.968l0.129,0.643
				l0.064,0.321l0.088,0.526c0.122,0.766,0.152,1.458,0.16,2.133c-0.008,1.324-0.165,2.483-0.383,3.552
				c-0.456,2.127-1.12,3.926-1.841,5.617c-1.439,3.372-3.217,6.277-5.035,9.095c-1.864,2.785-3.824,5.428-5.895,7.964
				c-2.084,2.542-4.196,4.957-6.559,7.325l-5.529-4.321c3.028-5.348,6.113-10.828,8.641-16.254c1.286-2.693,2.4-5.441,3.195-7.995
				c0.388-1.27,0.66-2.511,0.74-3.504c0.044-0.49,0.044-0.913,0.004-1.172c-0.027-0.114-0.046-0.214-0.072-0.227
				c-0.011-0.023,0.003,0.03-0.022-0.057l-0.075-0.255l-0.15-0.511l-0.597-2.042l-0.705-2.05c-0.464-1.367-0.996-2.741-1.536-4.107
				c-1.108-2.732-2.35-5.457-3.642-8.166c-1.319-2.703-2.707-5.391-4.14-8.059c-0.711-1.336-1.443-2.665-2.193-3.975l-2.217-3.825
				L376.814,195.56z"/>
			<path style="fill:#263238;" d="M374.399,189.11c8.798,1.286,17.862,31.926,17.862,31.926l-18.935,10.49
				c0,0-7.674-14.573-11.332-25.395C358.161,194.793,364.963,187.731,374.399,189.11z"/>
			<path style="opacity:0.3;" d="M368.67,205.9l-1.43,13.13c1.43,3.15,2.83,6.039,3.92,8.25
				C371.57,221.98,371.56,213.46,368.67,205.9z"/>
			<g>
				<polygon style="fill:#407BFF;" points="391.874,216.721 392.676,221.224 373.216,231.925 370.626,228.224 				"/>
				<polygon style="opacity:0.3;fill:#263238;" points="391.874,216.721 392.676,221.224 373.216,231.925 370.626,228.224 				"/>
			</g>
			<path style="fill:#B55B52;" d="M370.126,263.289l-9.306-1.621l4.776,10.77c0,0,8.494-0.049,8.104-4.427L370.126,263.289z"/>
			<polygon style="fill:#B55B52;" points="353.878,267.081 358.249,275.783 365.596,272.438 360.82,261.668 			"/>
			<path style="fill:#263238;" d="M322.023,189.592c0,0-12.009,28.222-3.355,80.78c15.062,0,42.659,0,49.988,0
				c0.61-7.673-2.912-45.106,5.743-81.262c0,0-8.509-1.719-16.66-2.113c-6.377-0.308-15.617-0.512-21.25,0.001
				C329.062,187.674,322.023,189.592,322.023,189.592z"/>
			<path style="opacity:0.3;" d="M316.65,213.73c-0.64,5.46-1.08,11.82-1.11,19.05c6.8-4.43,9.22-14.59,10.18-21.95L316.65,213.73z"
				/>
			<path style="fill:#B65B52;" d="M328.776,203.276c-1.902,3.288-3.841,6.302-5.858,9.383c-2.004,3.063-4.09,6.075-6.262,9.042
				c-4.347,5.934-8.974,11.713-14.294,17.173c-2.679,2.73-5.532,5.363-8.895,7.794l-1.295,0.903
				c-0.559,0.339-1.14,0.707-1.683,0.968c-1.113,0.592-2.169,1-3.226,1.376c-2.092,0.712-4.088,1.167-6.05,1.526
				c-3.926,0.662-7.709,0.895-11.462,0.909c-1.875-0.014-3.736-0.048-5.594-0.19c-1.87-0.135-3.674-0.271-5.596-0.552l-0.004-7.017
				c3.37-0.581,6.869-1.228,10.216-1.942c1.682-0.352,3.345-0.727,4.968-1.152c1.626-0.402,3.216-0.853,4.724-1.367
				c1.509-0.488,2.953-1.04,4.179-1.659c0.588-0.319,1.177-0.623,1.608-0.935c0.251-0.15,0.398-0.305,0.594-0.444l0.862-0.688
				c2.334-1.894,4.623-4.269,6.851-6.729c4.432-5.002,8.582-10.549,12.566-16.229c1.995-2.842,3.937-5.738,5.872-8.64
				c1.907-2.893,3.813-5.908,5.59-8.749L328.776,203.276z"/>
			<path style="fill:#263238;" d="M333.41,197.981c0.983,8.783-18.576,30.075-18.576,30.075l-15.495-12.116
				c0,0,6.681-11.465,13.741-20.214C321.12,185.762,332.301,188.066,333.41,197.981z"/>
			<g>
				<polygon style="fill:#407BFF;" points="300.475,211.888 298.986,216.212 314.825,229.211 317.957,225.956 				"/>
				<polygon style="opacity:0.3;fill:#263238;" points="300.475,211.888 298.986,216.212 314.825,229.211 317.957,225.956 				"/>
			</g>
			<path style="fill:#B55B52;" d="M258.559,244.625l-11.147,0.17l4.491,10.43c1.38,0.454,7.538-1.735,10.638-5.153L258.559,244.625z
				"/>
			<polygon style="fill:#B55B52;" points="239.716,250.199 245.81,257.844 251.904,255.225 247.412,244.795 			"/>
			<path style="fill:#263238;" d="M333.349,154.97c-0.108,0.746-0.593,1.308-1.083,1.254c-0.49-0.054-0.799-0.703-0.691-1.449
				c0.108-0.746,0.593-1.308,1.083-1.254C333.148,153.575,333.457,154.224,333.349,154.97z"/>
			<path style="fill:#A02724;" d="M333.56,155.638c0,0-2.329,4.119-4.506,5.991c1.147,1.378,3.482,1.063,3.482,1.063L333.56,155.638
				z"/>
			<path style="fill:#263238;" d="M332.29,161.158c-1.668,0-3.181-2.407-3.448-5.486c-0.177-2.042,0.26-3.911,1.142-4.876
				c0.403-0.441,0.886-0.676,1.398-0.678c0.002,0,0.005,0,0.008,0c1.667,0,3.181,2.407,3.448,5.486l0,0
				c0.177,2.042-0.261,3.911-1.143,4.876c-0.403,0.441-0.886,0.676-1.398,0.678C332.296,161.158,332.293,161.158,332.29,161.158z
				 M331.391,150.617c-0.002,0-0.004,0-0.006,0c-0.374,0.002-0.721,0.175-1.031,0.515c-0.79,0.866-1.179,2.589-1.013,4.496
				c0.236,2.729,1.586,5.029,2.95,5.029c0.002,0,0.004,0,0.006,0c0.374-0.002,0.721-0.175,1.031-0.515
				c0.791-0.866,1.179-2.589,1.014-4.496C334.104,152.918,332.754,150.617,331.391,150.617z"/>
			<path style="fill:#263238;" d="M336.001,151.666c0.1,0.011,0.203-0.012,0.293-0.072c0.203-0.136,0.258-0.411,0.122-0.614
				c-1.376-2.057-3.42-2.112-3.505-2.111c-0.245-0.004-0.446,0.191-0.449,0.436c-0.004,0.244,0.195,0.45,0.434,0.45
				c0.081,0.001,1.681,0.067,2.784,1.718C335.756,151.586,335.875,151.653,336.001,151.666z"/>
			<path style="fill:#B55B52;" d="M358.928,154.874c-1.896,9.105-2.542,14.514-7.873,18.709c-8.019,6.309-18.769,0.862-19.636-8.53
				c-0.781-8.454,2.451-21.924,11.989-24.582C352.804,137.852,360.824,145.768,358.928,154.874z"/>
			<g>
				<path style="fill:#407BFF;" d="M371.352,300.764c0.719-17.347-2.648-30.395-2.648-30.395h-32.26c0,0,3.745,13.212,3.682,30.395
					H371.352z"/>
				<path style="opacity:0.3;fill:#FFFFFF;" d="M371.352,300.764c0.719-17.347-2.648-30.395-2.648-30.395h-32.26
					c0,0,3.745,13.212,3.682,30.395H371.352z"/>
			</g>
			<path style="fill:#263238;" d="M339.167,157.611c-1.778-0.889-4-9.778-3.389-12.944c0.611-3.167,7.778-6.556,14.833-5.278
				c7.056,1.278,10.082,3.754,11.444,10.167c1.417,6.667-3.722,17.757-6.264,18.611c-3.403,1.144-6.979,0.646-9.236-0.778
				C344.288,165.958,343.111,155.778,339.167,157.611z"/>
			<path style="fill:#263238;" d="M337.3,147.861c-3.445,0.195-6.722-5.278-3.556-10.167c3.167-4.889,8.556-3.833,8.556-3.833
				s-1.445,2.806,3.361,2.222c4.806-0.583,13.737,0.75,16.863,4.11c3.851,4.14,1.526,12.279-4.28,10.279
				C352.439,148.472,337.3,147.861,337.3,147.861z"/>
			<path style="fill:#263238;" d="M336.375,147.992c-1.292,0-2.655-0.682-3.716-1.901c-1.424-1.635-2.47-4.557-1.137-7.851
				c0.052-0.128,0.198-0.19,0.326-0.138c0.128,0.052,0.19,0.197,0.138,0.325c-1.249,3.084-0.276,5.811,1.051,7.335
				c1.174,1.348,2.732,1.978,4.069,1.64c0.134-0.035,0.269,0.048,0.304,0.181c0.034,0.134-0.048,0.27-0.182,0.303
				C336.95,147.958,336.664,147.992,336.375,147.992z"/>
			<path style="fill:#B55B52;" d="M344.816,156.463c0.183,2.534-0.784,4.93-2.128,6.505c-2.021,2.369-4.669,0.937-5.479-1.913
				c-0.729-2.565-0.555-6.889,2.133-8.213C341.991,151.538,344.607,153.566,344.816,156.463z"/>
			<g>
				<path style="fill:#407BFF;" d="M314.446,300.764h35.854c2.874-17.347,1.272-30.395,1.272-30.395h-32.903
					C318.669,270.369,316.816,283.203,314.446,300.764z"/>
				<path style="opacity:0.3;fill:#FFFFFF;" d="M314.446,300.764h35.854c2.874-17.347,1.272-30.395,1.272-30.395h-32.903
					C318.669,270.369,316.816,283.203,314.446,300.764z"/>
			</g>
		</g>
	</g>
</g>
</svg>
